# xmcd
# Track frame offsets:
# 150
# 15708
# 32210
# 50124
# 72028
# 92671
# 110836
# 133119
# 152652
# 167374
#
# Disc length: 2495 seconds
# Revision: 0
# Processed by: cddbd v1.5PL3 Copyright (c) Steve Scherf et al.
# Submitted via: VisiTrax 2.9.9.202 - For more info visit www.synapsa.com
#
DISCID=8209bd0a
DTITLE=George Rowe - Think About That
DYEAR=1900
DGENRE=
TTITLE0=Think About That
TTITLE1=Swerve
TTITLE2=Everlasting
TTITLE3=Say the Word
TTITLE4=We Exalt You
TTITLE5=Blessed Assurance
TTITLE6=Broken
TTITLE7=One Miracle More
TTITLE8=Hunger
TTITLE9=My Prayer
EXTD=
EXTT0=
EXTT1=
EXTT2=
EXTT3=
EXTT4=
EXTT5=
EXTT6=
EXTT7=
EXTT8=
EXTT9=
PLAYORDER=
